<?xml version="1.0" standalone="no"?>
<!DOCTYPE svg PUBLIC "-//W3C//DTD SVG 20010904//EN"
 "http://www.w3.org/TR/2001/REC-SVG-20010904/DTD/svg10.dtd">
<svg version="1.0" xmlns="http://www.w3.org/2000/svg"
 width="310.000000pt" height="310.000000pt" viewBox="0 0 310.000000 310.000000"
 preserveAspectRatio="xMidYMid meet">
<metadata>
Created by potrace 1.11, written by Peter Selinger 2001-2013
</metadata>
<g transform="translate(0.000000,310.000000) scale(0.100000,-0.100000)"
fill="#000000" stroke="none">
<path d="M0 1550 l0 -1550 1550 0 1550 0 0 285 0 284 -913 4 c-901 3 -913 3
-990 25 -186 52 -326 132 -464 265 -157 152 -242 295 -300 507 -27 101 -25
396 4 507 50 189 132 331 272 474 120 122 297 241 248 166 -20 -31 -32 -87
-18 -87 6 0 11 -8 11 -17 0 -15 -2 -16 -10 -3 -8 12 -10 12 -9 -5 0 -11 4 -40
9 -65 l8 -45 -87 -90 c-171 -176 -241 -349 -241 -593 0 -231 86 -431 254 -596
122 -119 280 -200 436 -225 42 -7 373 -11 928 -11 l862 0 0 30 0 30 -652 0
c-516 1 -649 3 -636 13 10 7 46 28 80 47 84 46 232 194 287 288 124 208 151
479 72 710 -78 227 -268 421 -496 508 -82 31 -213 54 -307 54 l-66 0 -22 45
c-24 50 -64 85 -125 111 -54 22 -34 31 108 45 331 35 624 -69 859 -305 224
-225 332 -528 300 -838 -14 -130 -51 -259 -108 -371 -24 -49 -44 -91 -44 -93
0 -2 169 -4 375 -4 l375 0 0 1025 0 1025 -1550 0 -1550 0 0 -1550z m1215 939
c19 -36 19 -47 -4 -92 -11 -21 -14 -37 -8 -37 6 0 21 -10 34 -22 27 -26 32
-82 7 -92 -29 -11 -44 -6 -44 14 0 11 7 20 15 20 22 0 19 27 -4 40 -36 19 -40
12 -38 -57 2 -62 0 -68 -18 -68 -18 0 -20 7 -21 63 -1 34 -4 65 -7 68 -3 3
-15 1 -26 -6 -24 -12 -28 -40 -6 -40 8 0 15 -9 15 -21 0 -16 -5 -20 -27 -17
-25 3 -28 8 -31 41 -3 40 18 77 45 77 16 0 16 1 -2 36 -19 37 -19 74 0 101 28
40 98 36 120 -8z m358 -99 c85 -12 214 -55 247 -81 l25 -20 -38 7 c-83 14
-194 -30 -227 -91 -13 -24 -16 -25 -80 -19 -38 4 -97 1 -135 -5 -37 -7 -69
-10 -72 -8 -2 3 12 31 32 63 19 33 42 83 51 112 l15 52 57 0 c31 0 88 -5 125
-10z m-534 -249 l51 -84 -53 -56 c-100 -108 -147 -231 -147 -381 0 -180 73
-331 215 -447 230 -186 570 -160 772 61 104 113 147 227 147 386 0 108 -14
169 -56 254 l-20 38 26 58 c31 69 33 129 6 189 -11 24 -18 46 -16 48 3 3 21
-12 42 -34 103 -106 168 -216 206 -350 33 -119 31 -306 -6 -428 -62 -207 -210
-382 -401 -476 -108 -53 -179 -70 -311 -76 -239 -11 -442 70 -604 243 -144
152 -210 318 -210 527 0 180 51 339 154 474 49 65 134 146 147 141 5 -2 31
-41 58 -87z m773 32 c25 -30 28 -52 13 -96 -18 -52 -18 -57 -1 -57 36 0 63
-91 31 -104 -18 -6 -45 2 -45 15 0 5 7 9 15 9 18 0 20 34 3 47 -17 13 -109 13
-125 0 -18 -13 -16 -47 2 -47 8 0 15 -4 15 -9 0 -16 -19 -23 -40 -16 -39 12
-15 105 27 105 17 0 16 9 -2 53 -20 48 -19 59 6 91 25 31 77 36 101 9z m-632
-241 c-1 -18 -20 -34 -34 -29 -16 6 -22 38 -10 50 8 7 44 -10 44 -21z m330
-37 c30 -15 39 -38 20 -50 -13 -8 -70 23 -70 39 0 12 9 26 17 26 2 0 17 -7 33
-15z m-100 -44 c-14 -28 -38 -44 -55 -37 -21 8 -19 19 10 50 21 23 29 26 40
16 10 -8 12 -17 5 -29z m-234 -28 c8 -29 -6 -58 -27 -58 -15 0 -24 46 -15 71
9 23 35 16 42 -13z m402 -55 c-4 -51 -31 -61 -36 -15 -4 37 4 57 23 57 13 0
15 -9 13 -42z m-203 -53 c0 -45 -28 -63 -40 -25 -10 33 3 72 23 68 13 -2 17
-13 17 -43z m-205 -45 c0 -33 -3 -40 -20 -40 -17 0 -20 7 -20 40 0 33 3 40 20
40 17 0 20 -7 20 -40z m408 -42 c-2 -30 -8 -43 -18 -43 -10 0 -16 13 -18 43
-3 37 -1 42 18 42 19 0 21 -5 18 -42z m-200 -41 c4 -36 -15 -62 -34 -46 -15
12 -19 61 -7 73 15 15 38 0 41 -27z m406 24 c9 -14 -4 -41 -19 -41 -18 0 -28
17 -21 35 6 17 32 20 40 6z m-619 -77 c0 -28 -4 -39 -15 -39 -16 0 -26 45 -16
72 11 28 31 7 31 -33z m413 -37 c2 -27 -1 -39 -13 -44 -21 -7 -36 14 -30 44
10 56 38 55 43 0z m208 -1 c7 -31 -11 -67 -31 -60 -15 6 -21 64 -8 77 14 14
33 6 39 -17z m-427 -20 c8 -10 6 -19 -10 -40 -38 -48 -75 -26 -39 24 24 33 32
36 49 16z m-134 -38 c28 -12 33 -36 10 -44 -19 -8 -65 22 -65 41 0 18 20 19
55 3z m356 -73 c6 -36 1 -55 -16 -55 -16 0 -36 55 -28 76 9 25 37 11 44 -21z
m197 -9 c4 -30 -12 -56 -34 -56 -16 0 -18 28 -4 65 13 33 34 28 38 -9z m-84
-76 c15 -15 -5 -30 -39 -30 -36 0 -50 12 -41 35 4 11 14 13 38 9 18 -4 37 -10
42 -14z"/>
<path d="M1130 2485 c-7 -9 -10 -18 -7 -21 7 -8 47 14 47 26 0 15 -26 12 -40
-5z"/>
<path d="M1142 2438 c-22 -22 -14 -48 13 -48 21 0 25 5 25 30 0 31 -17 39 -38
18z"/>
<path d="M1733 2145 c-8 -23 0 -26 29 -11 15 8 30 11 34 8 4 -4 4 -1 0 6 -10
17 -55 15 -63 -3z"/>
<path d="M1747 2102 c-14 -16 -15 -21 -3 -37 19 -27 46 -13 46 25 0 34 -18 40
-43 12z"/>
</g>
</svg>
