<?xml version="1.0" encoding="UTF-8"?>
<!DOCTYPE svg PUBLIC "-//W3C//DTD SVG 1.1//EN" "http://www.w3.org/Graphics/SVG/1.1/DTD/svg11.dtd">
<!-- Creator: CorelDRAW X8 -->
<svg xmlns="http://www.w3.org/2000/svg" xml:space="preserve" width="2043px" height="1616px" version="1.1" style="shape-rendering:geometricPrecision; text-rendering:geometricPrecision; image-rendering:optimizeQuality; fill-rule:evenodd; clip-rule:evenodd"
viewBox="0 0 184 146"
 xmlns:xlink="http://www.w3.org/1999/xlink">
 <defs>
  <style type="text/css">
   <![CDATA[
    .fil4 {fill:none;fill-rule:nonzero}
    .fil5 {fill:#FEFEFE;fill-rule:nonzero}
    .fil0 {fill:#EBECEC;fill-rule:nonzero}
    .fil2 {fill:url(#id6);fill-rule:nonzero}
    .fil8 {fill:url(#id7);fill-rule:nonzero}
    .fil3 {fill:url(#id8);fill-rule:nonzero}
    .fil1 {fill:url(#id9);fill-rule:nonzero}
    .fil7 {fill:url(#id10);fill-rule:nonzero}
    .fil6 {fill:url(#id11);fill-rule:nonzero}
   ]]>
  </style>
     <clipPath id="id0" style="clip-rule:nonzero">
      <path d="M68 19l0 -1c0,-8 -7,-16 -16,-16 -9,0 -17,8 -17,17 0,2 1,5 2,7l14 24c0,1 0,1 1,1 0,0 1,0 1,-1l13 -24c2,-2 2,-5 2,-7z"/>
     </clipPath>
      <clipPath id="id1" style="clip-rule:nonzero">
       <path d="M36 23c3,3 24,3 21,14 -2,9 -4,12 -4,13l13 -24c2,-2 2,-5 2,-7l0 -1c0,-8 -7,-16 -16,-16 -9,0 -17,8 -17,17 0,1 1,2 1,4z"/>
      </clipPath>
      <clipPath id="id2" style="clip-rule:nonzero">
       <path d="M68 19l0 -1c0,-8 -7,-16 -16,-16 -9,0 -17,8 -17,17 0,2 1,5 2,7l14 24c0,1 0,1 1,1 0,0 1,0 1,-1l13 -24c2,-2 2,-5 2,-7z"/>
      </clipPath>
     <clipPath id="id3" style="clip-rule:nonzero">
      <path d="M111 42l0 0c0,-9 -8,-17 -17,-17 -9,0 -16,8 -16,17 0,2 1,5 2,7l13 24c1,1 1,1 1,1 1,0 1,0 1,-1l14 -24c1,-2 2,-5 2,-7z"/>
     </clipPath>
      <clipPath id="id4" style="clip-rule:nonzero">
       <path d="M78 46c4,3 24,3 22,14 -3,10 -4,12 -5,13l14 -24c1,-2 2,-5 2,-7l0 0c0,-9 -8,-17 -17,-17 -9,0 -16,8 -16,17 0,1 0,2 0,4z"/>
      </clipPath>
      <clipPath id="id5" style="clip-rule:nonzero">
       <path d="M111 42l0 0c0,-9 -8,-17 -17,-17 -9,0 -16,8 -16,17 0,2 1,5 2,7l13 24c1,1 1,1 1,1 1,0 1,0 1,-1l14 -24c1,-2 2,-5 2,-7z"/>
      </clipPath>
  <linearGradient id="id6" gradientUnits="userSpaceOnUse" x1="35.1172" y1="22.9299" x2="68.4881" y2="29.9069">
   <stop offset="0" style="stop-opacity:1; stop-color:#28AB62"/>
   <stop offset="1" style="stop-opacity:1; stop-color:#076B38"/>
  </linearGradient>
  <linearGradient id="id7" gradientUnits="userSpaceOnUse" x1="77.6512" y1="50.4462" x2="115.721" y2="33.694">
   <stop offset="0" style="stop-opacity:1; stop-color:#00A0E3"/>
   <stop offset="1" style="stop-opacity:1; stop-color:#312A62"/>
  </linearGradient>
  <linearGradient id="id8" gradientUnits="userSpaceOnUse" xlink:href="#id6" x1="36.3729" y1="32.451" x2="72.1683" y2="5.56887">
  </linearGradient>
  <linearGradient id="id9" gradientUnits="userSpaceOnUse" xlink:href="#id6" x1="50.9229" y1="50.921" x2="52.682" y2="2.31698">
  </linearGradient>
  <linearGradient id="id10" gradientUnits="userSpaceOnUse" xlink:href="#id7" x1="77.6712" y1="57.5987" x2="110.765" y2="41.3581">
  </linearGradient>
  <linearGradient id="id11" gradientUnits="userSpaceOnUse" xlink:href="#id7" x1="93.3382" y1="73.981" x2="95.0973" y2="25.377">
  </linearGradient>
 </defs>
 <g id="Слой_x0020_1">
  <metadata id="CorelCorpID_0Corel-Layer"/>
  <g id="_2359249237776">
   <path class="fil0" d="M146 146l-73 0c-20,0 -37,-7 -52,-22 -14,-14 -21,-31 -21,-51 0,-20 7,-37 21,-52 15,-14 32,-21 52,-21 20,0 37,7 51,21 15,15 22,32 22,52 0,14 -4,27 -12,39l50 0 -17 15 -72 0c11,-4 19,-11 26,-21 7,-10 10,-21 10,-33 0,-16 -5,-30 -17,-41 -11,-12 -25,-17 -41,-17 -16,0 -30,5 -41,17 -12,11 -17,25 -17,41 0,16 5,30 17,41 11,12 25,17 41,17l90 0 -17 15zm-19 -73c0,15 -5,28 -16,38 -10,11 -23,16 -38,16 -15,0 -28,-5 -38,-16 -11,-10 -16,-23 -16,-38 0,-15 5,-28 16,-38 10,-11 23,-16 38,-16 15,0 28,5 38,16 11,10 16,23 16,38zm-15 0c0,-11 -3,-20 -11,-28 -8,-8 -17,-12 -28,-12 -11,0 -20,4 -28,12 -8,8 -12,17 -12,28 0,11 4,20 12,28 8,8 17,11 28,11 11,0 20,-3 28,-11 8,-8 11,-17 11,-28z"/>
   <g>
    <path class="fil0" d="M59 88c0,-1 -1,-2 -2,-2 0,-1 -1,-1 -2,-1 -1,-1 -2,-1 -2,0 0,0 0,0 0,1 0,0 0,1 0,1 1,1 2,1 4,2 0,0 1,-1 2,-1z"/>
    <path class="fil0" d="M82 62c0,-1 0,-1 0,-1 0,-1 -1,-1 -2,-1 -1,0 -2,0 -2,1 0,0 0,0 0,0l0 3c0,1 1,2 2,2 1,0 2,-1 2,-2l0 -2z"/>
    <path class="fil0" d="M81 80c1,-1 0,-1 -1,-1 -1,-1 -2,0 -2,1l0 3c0,1 1,2 2,2 1,0 1,-1 1,-2l0 -3z"/>
    <path class="fil0" d="M94 86c1,0 2,-1 2,-2l0 -3c0,-1 -1,-1 -2,-1 -1,0 -1,0 -1,1l0 3c0,1 0,2 1,2z"/>
    <path class="fil0" d="M78 71l0 3c0,1 1,1 2,1 1,0 2,0 2,-1l0 -3c0,-1 -1,-2 -2,-2 -1,0 -2,1 -2,2z"/>
    <path class="fil0" d="M94 76c1,0 2,0 2,-1l0 -3c0,-1 -1,-2 -2,-2 -1,0 -1,1 -1,2l0 3c0,1 0,1 1,1z"/>
    <path class="fil0" d="M88 99c1,-1 2,-1 2,-2 -1,-1 -1,-2 -2,-2 -1,0 -1,0 -1,0 -1,0 -1,0 -2,0 -1,0 -1,0 -2,1 0,0 0,1 0,1 0,0 1,1 1,1 1,0 2,1 3,1 0,0 1,0 1,0z"/>
    <path class="fil0" d="M53 71l0 -3c0,-1 0,-2 -1,-2 -1,0 -2,1 -2,2l0 3c0,1 1,1 2,1 0,0 1,0 1,-1z"/>
    <path class="fil0" d="M53 61l0 -3c0,-1 0,-1 -1,-1 -1,0 -2,0 -2,1l0 3c0,1 1,2 2,2 1,0 1,-1 1,-2z"/>
    <path class="fil0" d="M66 79c1,0 1,-1 1,-2l0 -3c0,-1 0,-1 -1,-1 -1,0 -2,0 -2,1l0 3c0,1 1,2 2,2z"/>
    <path class="fil0" d="M66 69c1,0 1,0 1,-1l0 -3c0,-1 0,-2 -1,-2 -1,0 -2,1 -2,2l0 3c0,1 1,1 2,1z"/>
    <path class="fil0" d="M53 80l0 -3c0,-1 -1,-1 -1,-1 -1,0 -2,0 -2,1l0 3 2 0 -2 0c0,1 1,2 2,2 0,0 1,-1 1,-2z"/>
    <path class="fil0" d="M61 86c0,0 0,1 1,1 0,1 1,1 2,0 1,-1 2,-2 2,-3 1,-1 0,-2 0,-2 -1,0 -2,0 -2,1 -1,0 -1,1 -2,2 0,0 -1,0 -1,1z"/>
    <path class="fil0" d="M82 92c0,-1 -1,-1 -1,-2l0 0c0,-1 0,-2 -1,-2 -1,0 -2,1 -2,2l0 0c0,1 0,2 1,3 0,1 1,1 2,1 1,0 1,-1 1,-2z"/>
    <path class="fil0" d="M65 58c0,1 0,2 1,2 1,0 2,0 2,-1 0,-1 1,-1 1,-2 1,0 1,-1 1,-2 -1,-1 -2,-1 -3,0 -1,1 -1,2 -2,3 0,0 0,0 0,0z"/>
    <path class="fil0" d="M94 94c1,-1 1,-2 2,-3 0,-1 -1,-2 -2,-2 -1,0 -1,1 -2,1 0,1 0,2 0,3 0,0 -1,0 -1,1 0,0 1,1 1,1 1,0 2,0 2,-1z"/>
    <path class="fil0" d="M53 52l0 -3c0,-1 0,-2 -1,-2 -1,0 -2,1 -2,2l0 3c0,1 1,1 2,1 1,0 1,0 1,-1z"/>
    <path class="fil0" d="M74 56c1,0 2,1 2,1 1,1 2,0 2,0 1,-1 1,-2 0,-3 -1,0 -2,-1 -3,-1 -1,0 -2,0 -2,1 0,0 0,0 0,0 0,1 0,2 1,2z"/>
   </g>
   <g>
    <path class="fil1" d="M68 19l0 -1c0,-8 -7,-16 -16,-16 -9,0 -17,8 -17,17 0,2 1,5 2,7l14 24c0,1 0,1 1,1 0,0 1,0 1,-1l13 -24c2,-2 2,-5 2,-7z"/>
    <g style="clip-path:url(#id0)">
     <g>
      <path id="1" class="fil2" d="M68 19l0 -1c0,-9 -7,-16 -16,-16 -9,0 -17,7 -17,16 0,2 0,3 1,4 1,4 24,3 21,15 -3,12 -4,12 -4,14l13 -25c2,-2 2,-5 2,-7z"/>
     </g>
     <g style="clip-path:url(#id1)">
      <g>
       <path id="2" class="fil3" d="M73 11l0 0c0,-10 -8,-17 -19,-17 -10,0 -19,7 -19,17 0,1 0,2 1,3 1,5 28,3 24,15 -3,13 -3,14 -4,15l13 -23c2,-2 4,-8 4,-10z"/>
      </g>
     </g>
     <g style="clip-path:url(#id2)">
      <path class="fil4" d="M68 19l0 -1c0,-9 -7,-16 -16,-16 -9,0 -17,7 -17,16 0,2 0,3 1,4 1,4 24,3 21,15 -3,12 -4,12 -4,14l13 -25c2,-2 2,-5 2,-7z"/>
     </g>
    </g>
    <path class="fil4" d="M68 19l0 -1c0,-8 -7,-16 -16,-16 -9,0 -17,8 -17,17 0,2 1,5 2,7l14 24c0,1 0,1 1,1 0,0 1,0 1,-1l13 -24c2,-2 2,-5 2,-7z"/>
    <path class="fil5" d="M52 23l-1 -1 0 -1c0,0 0,0 1,0l0 0c0,0 0,0 1,0l0 1 -1 1zm-1 1l0 0 0 1c0,0 0,6 0,7 0,0 0,0 0,0l1 1c0,0 0,0 0,0 0,0 0,0 0,0 0,0 1,-1 1,-1 0,0 0,0 0,0l0 -7c0,0 0,0 0,0l-1 -1 0 0 2 -1 2 1c0,0 0,0 0,0 0,0 2,0 2,2l0 2 -2 0 0 0c-1,0 -1,0 -1,0 0,1 0,1 1,1l0 0 2 0 0 0c1,0 1,0 1,-1l0 -2c0,-3 -2,-3 -3,-4l-2 -1 0 0c3,-3 4,-11 -2,-11l0 0c-6,0 -6,7 -2,11l0 0 -3 1c0,1 -2,1 -2,4l0 2c0,1 0,1 0,1l1 0 1 0 1 0c0,0 1,0 1,-1 0,0 -1,0 -1,0l-1 0 -1 0 0 -2c0,-2 2,-2 2,-2 0,0 0,0 0,0l2 -1 1 1zm-2 -8c1,0 3,-1 4,-2 0,0 1,2 1,2l0 2c0,1 -1,2 -2,2l0 0c-2,0 -3,-1 -3,-2l0 -2 0 0zm3 -4l0 0c2,0 3,1 3,3l0 0c0,0 0,0 0,0 0,0 0,0 0,0 -1,0 -1,-1 -1,-1 0,-1 0,-1 -1,-1 0,0 0,0 0,0 -2,2 -4,2 -4,2 0,0 0,0 0,0 0,0 0,0 0,0 0,0 0,0 0,0 0,0 0,0 0,0 0,0 0,0 0,0 0,0 0,0 0,0 0,0 0,0 0,0l0 0c0,-2 1,-3 3,-3z"/>
   </g>
   <g>
    <path class="fil6" d="M111 42l0 0c0,-9 -8,-17 -17,-17 -9,0 -16,8 -16,17 0,2 1,5 2,7l13 24c1,1 1,1 1,1 1,0 1,0 1,-1l14 -24c1,-2 2,-5 2,-7z"/>
    <g style="clip-path:url(#id3)">
     <g>
      <path id="1" class="fil7" d="M111 42l0 0c0,-10 -8,-17 -17,-17 -9,0 -16,7 -16,17 0,1 0,2 0,3 2,4 25,3 22,15 -3,12 -5,12 -5,14l14 -25c1,-2 2,-5 2,-7z"/>
     </g>
     <g style="clip-path:url(#id4)">
      <g>
       <path id="2" class="fil8" d="M116 34l0 0c0,-10 -9,-17 -19,-17 -11,0 -19,7 -19,17 0,1 0,2 0,3 2,5 28,3 25,15 -4,13 -4,14 -4,16l13 -24c1,-2 4,-7 4,-10z"/>
      </g>
     </g>
     <g style="clip-path:url(#id5)">
      <path class="fil4" d="M111 42l0 0c0,-10 -8,-17 -17,-17 -9,0 -16,7 -16,17 0,1 0,2 0,3 2,4 25,3 22,15 -3,12 -5,12 -5,14l14 -25c1,-2 2,-5 2,-7z"/>
     </g>
    </g>
    <path class="fil4" d="M111 42l0 0c0,-9 -8,-17 -17,-17 -9,0 -16,8 -16,17 0,2 1,5 2,7l13 24c1,1 1,1 1,1 1,0 1,0 1,-1l14 -24c1,-2 2,-5 2,-7z"/>
    <path class="fil5" d="M94 46l0 -1 0 0c0,0 0,0 0,0l1 0c0,0 0,0 0,0l0 0 -1 1zm1 1l1 -1 2 1c0,0 0,0 0,0 1,0 2,0 2,2l0 2 -1 0 -1 0c0,0 -1,0 -1,0 0,1 1,1 1,1l1 0 1 0 1 0c0,0 0,0 0,-1l0 -2c0,-3 -2,-3 -2,-4l-3 -1 0 0c4,-3 4,-11 -2,-11l0 0c-5,0 -5,7 -2,11l0 0 -2 1c-1,1 -3,1 -3,4l0 2c0,1 0,1 1,1l0 0 2 0 1 0c0,0 0,0 0,-1 0,0 0,0 0,0l-1 0 -1 0 0 -2c0,-2 1,-2 1,-2 0,0 0,0 0,0l2 -1 2 1 1 0zm-3 -8c1,0 2,-1 4,-2 0,0 0,2 1,2l0 2c0,1 -1,2 -2,2l-1 0c-1,0 -2,-1 -2,-2l0 -2 0 0zm2 -4l0 0c2,0 3,1 3,3l0 0c0,0 0,0 0,0 0,0 0,0 0,0 0,0 -1,-1 -1,-1 0,-1 0,-1 0,-1 -1,0 -1,0 -1,0 -1,2 -4,2 -4,2 0,0 0,0 0,0 0,0 0,0 0,0 0,0 0,0 0,0 0,0 0,0 0,0 0,0 0,0 0,0 0,0 0,0 0,0 0,0 0,0 0,0l0 0c0,-2 1,-3 3,-3z"/>
   </g>
  </g>
 </g>
</svg>
